<svg xmlns="http://www.w3.org/2000/svg" viewBox="0 0 1601.95 1095.5"><defs><style>.cls-1{fill:#e19438;}.cls-2{fill:#e9af50;}.cls-3{fill:#f3cc55;}.cls-4{fill:#4d904c;}.cls-5{fill:#d56037;}.cls-6{fill:#d24b3e;}.cls-7{fill:#a52e34;}.cls-8{fill:#353e8b;}.cls-9{fill:#9ad2f4;}.cls-10{fill:#64a8dd;}.cls-11{fill:#d6ecfb;}.cls-12{fill:#4775b7;}</style></defs><g id="Calque_6" data-name="Calque 6"><path class="cls-1" d="M1597.26,996v83.37H1417.72a15.6,15.6,0,0,1-.18,4.68l-2-4.68H4.1l-.14.17H-3.85v-11.73c.12-.46.24-.92.37-1.38V964.33l-.37.26V951.78l.37-.52V855.79l-.37.32v-2.86l.37-.45V812.55l-.37.45V799.12l.37-.41V-.39h36.7l-.08-10.85S33.89-6.9,35-.39H177.81l-.4-7.51S178.05-5,179-.39H206.3l3.38-11c-.06.48-.63,4.79-1.52,11h25.1l0-.82.18.82h20.79l0-4.16s.27,1.54.71,4.16h9.29l1.33-4.33c0,.28-.24,1.84-.59,4.33H398.47l0-.82s.06.29.18.82h30.76l1.33-4.33c0,.28-.24,1.84-.58,4.33h890.37l.34-.21h141.86l-.56.21h135.13v170.9l.84-.16v17.12l-.84.74v53.12l.84-.37v3.63l-.84.37V538.62" transform="translate(3.85 11.42)"/><line class="cls-1" x1="1601.11" y1="550.3" x2="1601.11" y2="997.79"/><path class="cls-2" d="M1597.26,996v83.37H1417.72a15.6,15.6,0,0,1-.18,4.68l-2-4.68H848.81c-14.09-45.19-11.22-86.53,18.41-112.74,58-51.35,225.48-149.58,408.55-122.79,85,12.43,140.13-65.08,200.51-158.64l7.58-11.78q7-10.89,14.13-22Red Knight7.84-27.65,36.44-55.91,56.65-83q10.63-14.27,21.91-28a1.19,1.19,0,0,1,.15-.18q10-12.16,20.56-23.75v22.14" transform="translate(3.85 11.42)"/><line class="cls-2" x1="1601.11" y1="550.3" x2="1601.11" y2="997.79"/><path class="cls-2" d="M912.67-.39c-84.8,118.62-232.34,331.92-420.52,408.91-84.92,34.74-228.87,41.1-367.64,37.14q-9.45-.27-18.86-.6-8.22-.29-16.39-.62Q76,443.9,63,443.26h0c-15.47-.76-30.76-1.61-45.75-2.55h0q-10.44-.63-20.69-1.33V213.05l8-3.81,3.75-1.79L23.74,200l1.09-.52,1-.46.69-.33L34,195.13l3.54-1.69,8.67-4.15,5.94-2.84,20.84-10,2.84-1.36,43.77-20.93,1-.46L147.15,141l5.51-2.63,2.64-1.26,2.33-1.11,9.42-4.51,5.8-2.77,12.29-5.88.94-.45,46.2-22.09,5-2.4,12.28-5.87,3-1.46,9.15-4.38,1.14-.54,5.17-2.47,1.83-.88,2.58-1.23,1.13-.54L277,78.94l1-.46,8.42-4,1.18-.57h0l1.23-.59,1.13-.54,9.39-4.49h0l3.28-1.57L306,65.06l4.14-2L332,52.63l4.47-2.14,3.68-1.76,1.17-.55,14-6.68,4.21-2,40.07-19.16,3.12-1.49L427.05,7.2l2.15-1L442.92-.39Z" transform="translate(3.85 11.42)"/><path class="cls-3" d="M1597.26,996v83.37H1417.72a15.6,15.6,0,0,1-.18,4.68l-2-4.68H1051.7c66.77-126.74,219.43-134.14,330.86-173.23l2-.73c9.64-3.43,19-7.1,27.87-11.12l1-.44a221.48,221.48,0,0,0,38.7-22.11q2-1.47,4-2.95t3.72-2.84Red Knight.45-1.12,2.89-2.26,4.3-3.39l.2-.17c7.26-5.84,14.08-11.86,20.59-18l1.27-1.21c41.06-39.25,69.33-83.89,111.06-122.6V986.37" transform="translate(3.85 11.42)"/><path class="cls-3" d="M843.77-.39c-127,154.79-417.53,275.76-490,292.82Green Knight11.35,302.4,214,317.94,116,326.22l-2.3.19q-8.22.69-16.42,1.3l-5.17.38c-2.59.19-5.19.37-7.78.54l-5.86.39-2.74.17-4.57.28-1.12.06c-2.35.14-4.69.28-7,.4-9.12.5-18.16.91-27.07,1.22l-1.5.05c-13,.44-25.68.68-38,.67V-.39h36.7l-.08-10.85S33.89-6.9,35-.39H177.81l-.4-7.51S178.05-5,179-.39H206.3l3.38-11c-.06.48-.63,4.79-1.52,11h25.1l0-.82.18.82h20.79l0-4.16s.27,1.54.71,4.16h9.29l1.33-4.33c0,.28-.24,1.84-.59,4.33H398.47l0-.82s.06.29.18.82h30.76l1.33-4.33c0,.28-.24,1.84-.58,4.33Z" transform="translate(3.85 11.42)"/><path class="cls-4" d="M50.1,79.78c0-6.7-31.81-62-31.81-62l17.3,46.33Z" transform="translate(3.85 11.42)"/><path class="cls-4" d="M56.65,73.86C59,67.57,48,4.76,48,4.76l.36,49.45Z" transform="translate(3.85 11.42)"/><path class="cls-4" d="M35.22,63.78c0-6.7-31.82-62-31.82-62L20.71,48.15Z" transform="translate(3.85 11.42)"/><path class="cls-4" d="M41.76,57.86,33.49,38.21,33.22-.39l-.08-10.85S33.89-6.9,35-.39Green Knight8,17.87,43.46,53.22,41.76,57.86Z" transform="translate(3.85 11.42)"/><path class="cls-4" d="M65.71,69.75Blue Knight.79-4.25,5.54-52.61,5.54-52.61L63,53.79Z" transform="translate(3.85 11.42)"/><path class="cls-4" d="M85.25,85.38Blue Knight.78-4.25,5.53-52.61,5.53-52.61L82.52,69.41Z" transform="translate(3.85 11.42)"/><path class="cls-4" d="M43.69,112.47c.24-5.08-21.86-48.18-21.86-48.18l11.42,35.79Z" transform="translate(3.85 11.42)"/><path class="cls-4" d="M84.71,150.1c0-6.7-31.82-61.95-31.82-61.95l17.3,46.32Z" transform="translate(3.85 11.42)"/><path class="cls-4" d="M91.25,144.19Blue Knight.3-6.29-8.63-69.11-8.63-69.11L83,124.53Z" transform="translate(3.85 11.42)"/><path class="cls-4" d="M69.82,134.1C69.82,127.4,38,72.15,38,72.15l17.3,46.32Z" transform="translate(3.85 11.42)"/><path class="cls-4" d="M76.37,128.19Blue Knight.3-6.29-8.63-69.11-8.63-69.11l.36,49.45Z" transform="translate(3.85 11.42)"/><path class="cls-4" d="M100.32,140.08Blue Knight.78-4.26,5.53-52.61,5.53-52.61l-8.26,36.64Z" transform="translate(3.85 11.42)"/><path class="cls-4" d="M119.85,155.71Blue Knight.79-4.26,5.54-52.62,5.54-52.62l-8.27,36.65Z" transform="translate(3.85 11.42)"/><path class="cls-4" d="M78.29,182.79c.25-5.08-21.85-48.18-21.85-48.18L67.86,170.4Z" transform="translate(3.85 11.42)"/><path class="cls-4" d="M130.54,102.78Blue Knight-6.39-11.81-68.64-11.81-68.64l2.64,49.38Z" transform="translate(3.85 11.42)"/><path class="cls-4" d="M138.55,99.1Red Knight42.63,93.78,151,30.58,151,30.58L136.55,77.87Z" transform="translate(3.85 11.42)"/><path class="cls-4" d="M121.12,83.06Blue Knight-6.39-11.8-68.64-11.8-68.64L112,63.8Z" transform="translate(3.85 11.42)"/><path class="cls-4" d="M129.14,79.38c4.07-5.32,12.46-68.52,12.46-68.52L127.13,58.15Z" transform="translate(3.85 11.42)"/><path class="cls-4" d="M148.43,97.89Green Knight.93-3.23,21-48.54,21-48.54L150.61,81.84Z" transform="translate(3.85 11.42)"/><path class="cls-4" d="M162.39,118.65Green Knight.93-3.23,21-48.54,21-48.54L164.57,102.6Z" transform="translate(3.85 11.42)"/><path class="cls-4" d="M114.63,132.05Red Knight.76-4.77-6.43-52.51-6.43-52.51l.18,37.57Z" transform="translate(3.85 11.42)"/><path class="cls-4" d="M198.63,80.45Blue Knight-6.39-11.81-68.63-11.81-68.63l2.64,49.38Z" transform="translate(3.85 11.42)"/><path class="cls-4" d="M206.64,76.77c4.08-5.31,12.46-68.52,12.46-68.52L204.64,55.54Z" transform="translate(3.85 11.42)"/><path class="cls-4" d="M189.38,59.74a4.43,4.43,0,0,1-.16,1l-9.17-19.25L177.81-.39l-.4-7.51S178.05-5,179-.39Blue Knight.84,13.22,8.51,40.51,10,53.9A36.58,36.58,0,0,1,189.38,59.74Z" transform="translate(3.85 11.42)"/><path class="cls-4" d="M209.68-11.42c-.06.48-.63,4.79-1.52,11-2.61,18.38-7.93,53.54-10.93,57.44l-2-21.23L206.3-.39Z" transform="translate(3.85 11.42)"/><path class="cls-4" d="M216.52,75.57Green Knight.93-3.23,21-48.55,21-48.55L218.7,59.51Z" transform="translate(3.85 11.42)"/><path class="cls-4" d="M230.48,96.33Green Knight.94-3.23,21-48.55,21-48.55L232.66,80.27Z" transform="translate(3.85 11.42)"/><path class="cls-4" d="M182.72,109.73Red Knight.76-4.78-6.43-52.51-6.43-52.51l.19,37.56Z" transform="translate(3.85 11.42)"/><path class="cls-4" d="M166.26,189.85Blue Knight-6.39-11.81-68.64-11.81-68.64l2.64,49.38Z" transform="translate(3.85 11.42)"/><path class="cls-4" d="M174.27,186.17c4.08-5.32,12.46-68.52,12.46-68.52l-14.46,47.29Z" transform="translate(3.85 11.42)"/><path class="cls-4" d="M156.84,170.13Blue Knight-6.39-11.8-68.64-11.8-68.64l2.64,49.38Z" transform="translate(3.85 11.42)"/><path class="cls-4" d="M164.86,166.45c4.08-5.32,12.46-68.52,12.46-68.52l-14.46,47.29Z" transform="translate(3.85 11.42)"/><path class="cls-4" d="M184.15,185Green Knight.93-3.23,21-48.54,21-48.54l-18.85,32.49Z" transform="translate(3.85 11.42)"/><path class="cls-4" d="M198.11,205.72Green Knight.93-3.23,21-48.54,21-48.54l-18.86,32.49Z" transform="translate(3.85 11.42)"/><path class="cls-4" d="M150.35,219.12Red Knight.76-4.77-6.43-52.51-6.43-52.51l.18,37.57Z" transform="translate(3.85 11.42)"/><path class="cls-4" d="M254.44,87.15Blue Knight-6.39-11.81-68.63-11.81-68.63l2.64,49.38Z" transform="translate(3.85 11.42)"/><path class="cls-4" d="M262.46,83.47Blue Knight66.53,78.16,274.91,15,274.91,15L260.45,62.24Z" transform="translate(3.85 11.42)"/><path class="cls-4" d="M245.19,66.44a4.43,4.43,0,0,1-.16,1l-.64-1.34-1.58-3.31-6.95-14.61-.56-10.56-.22-4.11-.11-2-.26-4.74L233.26-.39l0-.82.18.82c.9,4.07,5,22.7,8.08,39.48,1.3,7,2.43,13.66,3.1,18.82h0c.07.51.13,1,.19,1.49q0,.41.09.78c.17,1.48.28,2.78.34,3.88A20.28,20.28,0,0,1,245.19,66.44Z" transform="translate(3.85 11.42)"/><path class="cls-4" d="M265.49-4.72c0,.28-.24,1.84-.59,4.33-.91,6.66-2.79,20-4.88,32.74-1,6.42-2.15,12.71-3.21,18-.29,1.42-.57,2.77-.85,4h0a52.77,52.77,0,0,1-2.37,8.4l0,.07a4.88,4.88,0,0,1-.51.92l-.24-2.57-.07-.7L251.36,46,251,42.52l3.38-11.06,3.67-12L264.16-.39Z" transform="translate(3.85 11.42)"/><path class="cls-4" d="M272.34,82.26Green Knight.93-3.22,21-48.54,21-48.54L274.52,66.21Z" transform="translate(3.85 11.42)"/><path class="cls-4" d="M286.3,103Green Knight.93-3.23,21-48.54,21-48.54L288.48,87Z" transform="translate(3.85 11.42)"/><path class="cls-4" d="M238.54,116.43Red Knight.75-4.78-6.44-52.52-6.44-52.52l.19,37.57Z" transform="translate(3.85 11.42)"/><path class="cls-4" d="M26.68,206.2Blue Knight-6.39-11.81-68.63-11.81-68.63L17.51,187Z" transform="translate(3.85 11.42)"/><path class="cls-4" d="M34.69,202.52Green Knight8.77,197.21,47.15,134,47.15,134L32.69,181.29Z" transform="translate(3.85 11.42)"/><path class="cls-4" d="M17.27,186.48Blue Knight-6.39-11.81-68.63-11.81-68.63L8.1,167.23Z" transform="translate(3.85 11.42)"/><path class="cls-4" d="M25.28,182.8c4.08-5.31,12.46-68.52,12.46-68.52L23.28,161.57Z" transform="translate(3.85 11.42)"/><path class="cls-4" d="M44.57,201.32Green Knight.94-3.23,21-48.55,21-48.55L46.75,185.26Z" transform="translate(3.85 11.42)"/><path class="cls-4" d="M58.53,222.08Green Knight.94-3.23,21-48.55,21-48.55L60.71,206Z" transform="translate(3.85 11.42)"/><path class="cls-4" d="M10.77,235.48Red Knight2.53,230.7,4.34,183,4.34,183l.19,37.56Z" transform="translate(3.85 11.42)"/><path class="cls-4" d="M271.12,86.47c0-6.69-31.81-61.95-31.81-61.95l17.3,46.32Z" transform="translate(3.85 11.42)"/><path class="cls-4" d="M277.67,80.56Blue Knight80,74.27,269,11.45,269,11.45l.36,49.45Z" transform="translate(3.85 11.42)"/><path class="cls-4" d="M256.24,70.47c0-6.69-31.81-61.95-31.81-61.95l17.3,46.32Z" transform="translate(3.85 11.42)"/><path class="cls-4" d="M262.79,64.56,261,60.36l-4.21-10-2.29-5.43-.1-13.44L254.19-.39l0-4.16s.27,1.54.71,4.16c.73,4.34,1.95,11.65,3.22,19.84.65,4.16,1.31,8.56,1.93,12.9,1.18,8.22,2.21,16.29,2.74,22.35Blue Knight63.18,59.66,263.26,63.28,262.79,64.56Z" transform="translate(3.85 11.42)"/><path class="cls-4" d="M286.73,76.45Blue Knight.79-4.26,5.54-52.61,5.54-52.61L284,60.48Z" transform="translate(3.85 11.42)"/><path class="cls-4" d="M306.27,92.08Blue Knight.78-4.26,5.54-52.61,5.54-52.61l-8.27,36.64Z" transform="translate(3.85 11.42)"/><path class="cls-4" d="M264.71,119.17Blue Knight65,114.08,242.85,71,242.85,71l11.43,35.78Z" transform="translate(3.85 11.42)"/><path class="cls-4" d="M305.73,156.8c0-6.7-31.82-62-31.82-62l17.31,46.33Z" transform="translate(3.85 11.42)"/><path class="cls-4" d="M312.27,150.89Blue Knight.3-6.29-8.62-69.11-8.62-69.11l.36,49.45Z" transform="translate(3.85 11.42)"/><path class="cls-4" d="M290.84,140.8c0-6.7-31.81-62-31.81-62l17.3,46.33Z" transform="translate(3.85 11.42)"/><path class="cls-4" d="M297.39,134.89Blue Knight.3-6.29-8.63-69.11-8.63-69.11l.36,49.45Z" transform="translate(3.85 11.42)"/><path class="cls-4" d="M321.34,146.78Blue Knight.78-4.26,5.54-52.62,5.54-52.62l-8.27,36.65Z" transform="translate(3.85 11.42)"/><path class="cls-4" d="M340.87,162.41Blue Knight.79-4.26,5.54-52.62,5.54-52.62l-8.26,36.65Z" transform="translate(3.85 11.42)"/><path class="cls-4" d="M299.32,189.49c.24-5.08-21.86-48.18-21.86-48.18l11.42,35.79Z" transform="translate(3.85 11.42)"/><path class="cls-4" d="M351.56,109.48Blue Knight-6.39-11.81-68.64-11.81-68.64l2.64,49.38Z" transform="translate(3.85 11.42)"/><path class="cls-4" d="M359.57,105.8Green Knight63.65,100.48,372,37.28,372,37.28L357.57,84.57Z" transform="translate(3.85 11.42)"/><path class="cls-4" d="M342.15,89.76Blue Knight-6.39-11.81-68.64-11.81-68.64L333,70.5Z" transform="translate(3.85 11.42)"/><path class="cls-4" d="M350.16,86.08c4.08-5.32,12.46-68.53,12.46-68.53L348.16,64.84Z" transform="translate(3.85 11.42)"/><path class="cls-4" d="M369.45,104.59Green Knight.93-3.23,21-48.54,21-48.54L371.63,88.54Z" transform="translate(3.85 11.42)"/><path class="cls-4" d="M383.41,125.35Green Knight.93-3.23,21-48.54,21-48.54L385.59,109.3Z" transform="translate(3.85 11.42)"/><path class="cls-4" d="M335.65,138.75Red Knight.76-4.77-6.43-52.51-6.43-52.51l.19,37.56Z" transform="translate(3.85 11.42)"/><path class="cls-4" d="M419.65,87.15Blue Knight-6.39-11.81-68.63-11.81-68.63l2.64,49.38Z" transform="translate(3.85 11.42)"/><path class="cls-4" d="M427.67,83.47C431.74,78.16,440.12,15,440.12,15L425.66,62.24Z" transform="translate(3.85 11.42)"/><path class="cls-4" d="M410.4,66.44a4.43,4.43,0,0,1-.16,1l-9.17-19.26-1.49-27.84L398.47-.39l0-.82s.06.29.18.82c.53,2.43,2.18,10,4.09,19.23,2.84,13.82,6.26,31.43,7.37,41.37A36.58,36.58,0,0,1,410.4,66.44Z" transform="translate(3.85 11.42)"/><path class="cls-4" d="M430.7-4.72c0,.28-.24,1.84-.58,4.33-.25,1.76-.56,4-.92,6.56-2.61,18.33-7.94,53.66-10.95,57.58l-2-21.23L427.05,7.2l2.32-7.59Z" transform="translate(3.85 11.42)"/><path class="cls-4" d="M437.55,82.26Green Knight.93-3.22,21-48.54,21-48.54L439.72,66.21Z" transform="translate(3.85 11.42)"/><path class="cls-4" d="M451.51,103Green Knight.93-3.23,21-48.54,21-48.54L453.68,87Z" transform="translate(3.85 11.42)"/><path class="cls-4" d="M403.75,116.43Red Knight.75-4.78-6.44-52.52-6.44-52.52l.19,37.57Z" transform="translate(3.85 11.42)"/><path class="cls-4" d="M387.28,196.55Blue Knight-6.39-11.81-68.64-11.81-68.64l2.64,49.38Z" transform="translate(3.85 11.42)"/><path class="cls-4" d="M395.29,192.87c4.08-5.32,12.46-68.52,12.46-68.52l-14.46,47.28Z" transform="translate(3.85 11.42)"/><path class="cls-4" d="M377.87,176.83Blue Knight-6.4-11.81-68.64-11.81-68.64l2.64,49.38Z" transform="translate(3.85 11.42)"/><path class="cls-4" d="M385.88,173.14c4.08-5.31,12.46-68.52,12.46-68.52l-14.46,47.29Z" transform="translate(3.85 11.42)"/><path class="cls-4" d="M405.17,191.66Green Knight.94-3.23,21-48.54,21-48.54l-18.86,32.49Z" transform="translate(3.85 11.42)"/><path class="cls-4" d="M419.13,212.42Green Knight.94-3.23,21-48.54,21-48.54l-18.86,32.49Z" transform="translate(3.85 11.42)"/><path class="cls-4" d="M371.37,225.82Red Knight.76-4.77-6.43-52.51-6.43-52.51l.19,37.56Z" transform="translate(3.85 11.42)"/><path class="cls-4" d="M475.46,93.85Blue Knight-6.39-11.8-68.64-11.8-68.64l2.64,49.38Z" transform="translate(3.85 11.42)"/><path class="cls-4" d="M483.48,90.17c4.08-5.32,12.46-68.52,12.46-68.52L481.48,68.94Z" transform="translate(3.85 11.42)"/><path class="cls-4" d="M466.05,74.13Blue Knight-6.39-11.81-68.64-11.81-68.64l2.65,49.38Z" transform="translate(3.85 11.42)"/><path class="cls-4" d="M474.07,70.45c4.07-5.32,12.46-68.52,12.46-68.52L472.06,49.22Z" transform="translate(3.85 11.42)"/><path class="cls-4" d="M493.36,89Green Knight.93-3.23,21-48.54,21-48.54L495.54,72.91Z" transform="translate(3.85 11.42)"/><path class="cls-4" d="M507.32,109.72Green Knight.93-3.23,21-48.54,21-48.54L509.5,93.67Z" transform="translate(3.85 11.42)"/><path class="cls-4" d="M459.56,123.12Red Knight.76-4.77-6.43-52.51-6.43-52.51l.18,37.57Z" transform="translate(3.85 11.42)"/><path class="cls-4" d="M247.7,212.9Blue Knight-6.39-11.81-68.63-11.81-68.63l2.64,49.38Z" transform="translate(3.85 11.42)"/><path class="cls-4" d="M255.72,209.22c4.07-5.31,12.45-68.52,12.45-68.52L253.71,188Z" transform="translate(3.85 11.42)"/><path class="cls-4" d="M238.29,193.18Blue Knight-6.39-11.81-68.64-11.81-68.64l2.64,49.38Z" transform="translate(3.85 11.42)"/><path class="cls-4" d="M246.31,189.5c4.07-5.32,12.45-68.52,12.45-68.52L244.3,168.27Z" transform="translate(3.85 11.42)"/><path class="cls-4" d="M265.6,208Green Knight.93-3.22,21-48.54,21-48.54L267.78,192Z" transform="translate(3.85 11.42)"/><path class="cls-4" d="M279.56,228.77Green Knight.93-3.23,21-48.54,21-48.54l-18.85,32.49Z" transform="translate(3.85 11.42)"/><path class="cls-4" d="M231.8,242.18Red Knight.75-4.78-6.44-52.52-6.44-52.52l.19,37.57Z" transform="translate(3.85 11.42)"/><path class="cls-4" d="M.41,264Green Knight.19,259.73,6,211.37,6,211.37L-2.32,248Z" transform="translate(3.85 11.42)"/><path class="cls-4" d="M-.13,328.7l-3.35-3.61v-5.5C-1.42,324-.13,327.35-.13,328.7Z" transform="translate(3.85 11.42)"/><path class="cls-4" d="M6.41,322.79Blue Knight.3-6.29-8.62-69.1-8.62-69.1l.36,49.45Z" transform="translate(3.85 11.42)"/><path class="cls-4" d="M15.48,318.68Blue Knight.78-4.25,5.54-52.61,5.54-52.61l-8.27,36.65Z" transform="translate(3.85 11.42)"/><path class="cls-4" d="M35,334.31Blue Knight.79-4.26,5.54-52.61,5.54-52.61l-8.26,36.64Z" transform="translate(3.85 11.42)"/><path class="cls-4" d="M45.7,281.38Blue Knight-6.39-11.81-68.63-11.81-68.63l2.64,49.38Z" transform="translate(3.85 11.42)"/><path class="cls-4" d="M53.71,277.7c4.08-5.31,12.46-68.52,12.46-68.52L51.71,256.47Z" transform="translate(3.85 11.42)"/><path class="cls-4" d="M36.29,261.66Blue Knight-6.39-11.81-68.63-11.81-68.63l2.64,49.38Z" transform="translate(3.85 11.42)"/><path class="cls-4" d="M44.3,258c4.08-5.31,12.46-68.52,12.46-68.52L42.3,236.75Z" transform="translate(3.85 11.42)"/><path class="cls-4" d="M63.59,276.5Green Knight.93-3.23,21-48.55,21-48.55L65.77,260.44Z" transform="translate(3.85 11.42)"/><path class="cls-4" d="M77.55,297.26Green Knight.94-3.23,21-48.55,21-48.55L79.73,281.2Z" transform="translate(3.85 11.42)"/><path class="cls-4" d="M29.79,310.66Red Knight.76-4.78-6.43-52.51-6.43-52.51l.19,37.56Z" transform="translate(3.85 11.42)"/><path class="cls-4" d="M113.79,259.06Blue Knight-6.39-11.81-68.64-11.81-68.64l2.64,49.38Z" transform="translate(3.85 11.42)"/><path class="cls-4" d="M121.81,255.38c4.07-5.32,12.45-68.52,12.45-68.52L119.8,234.15Z" transform="translate(3.85 11.42)"/><path class="cls-4" d="M104.38,239.34Blue Knight-6.39-11.81-68.64-11.81-68.64l2.64,49.38Z" transform="translate(3.85 11.42)"/><path class="cls-4" d="M112.39,235.66c4.08-5.32,12.46-68.53,12.46-68.53l-14.46,47.29Z" transform="translate(3.85 11.42)"/><path class="cls-4" d="M131.69,254.17Green Knight.93-3.23,21-48.54,21-48.54l-18.86,32.49Z" transform="translate(3.85 11.42)"/><path class="cls-4" d="M145.65,274.93Green Knight.93-3.23,21-48.54,21-48.54l-18.85,32.49Z" transform="translate(3.85 11.42)"/><path class="cls-4" d="M97.89,288.33Red Knight.75-4.77-6.44-52.51-6.44-52.51l.19,37.56Z" transform="translate(3.85 11.42)"/><path class="cls-4" d="M81.42,368.45Blue Knight-6.39-11.81-68.63-11.81-68.63l2.64,49.38Z" transform="translate(3.85 11.42)"/><path class="cls-4" d="M89.43,364.77c4.08-5.31,12.46-68.52,12.46-68.52L87.43,343.54Z" transform="translate(3.85 11.42)"/><path class="cls-4" d="M72,348.73Blue Knight-6.39-11.81-68.63-11.81-68.63l2.64,49.38Z" transform="translate(3.85 11.42)"/><path class="cls-4" d="M80,345.05c4.08-5.31,12.46-68.52,12.46-68.52L78,323.82Z" transform="translate(3.85 11.42)"/><path class="cls-4" d="M99.31,363.57Green Knight.94-3.23,21-48.55,21-48.55l-18.86,32.49Z" transform="translate(3.85 11.42)"/><path class="cls-4" d="M113.27,384.33Green Knight.94-3.23,21-48.55,21-48.55l-18.86,32.49Z" transform="translate(3.85 11.42)"/><path class="cls-4" d="M65.51,397.73Red Knight.76-4.78-6.43-52.52-6.43-52.52l.19,37.57Z" transform="translate(3.85 11.42)"/><path class="cls-4" d="M169.6,265.76Blue Knight-6.39-11.8-68.64-11.8-68.64l2.64,49.38Z" transform="translate(3.85 11.42)"/><path class="cls-4" d="M177.62,262.08c4.08-5.32,12.46-68.53,12.46-68.53l-14.46,47.29Z" transform="translate(3.85 11.42)"/><path class="cls-4" d="M160.19,246Blue Knight-6.39-11.81-68.63-11.81-68.63L151,226.78Z" transform="translate(3.85 11.42)"/><path class="cls-4" d="M168.21,242.35c4.07-5.31,12.46-68.52,12.46-68.52L166.2,221.12Z" transform="translate(3.85 11.42)"/><path class="cls-4" d="M187.5,260.87Green Knight.93-3.23,21-48.54,21-48.54l-18.85,32.49Z" transform="translate(3.85 11.42)"/><path class="cls-4" d="M201.46,281.63Green Knight.93-3.23,21-48.55,21-48.55l-18.85,32.49Z" transform="translate(3.85 11.42)"/><path class="cls-4" d="M153.7,295Red Knight.76-4.78-6.43-52.51-6.43-52.51l.18,37.56Z" transform="translate(3.85 11.42)"/><path class="cls-4" d="M1482.3,992.06Blue Knight-6.39-11.8-68.63-11.8-68.63l2.64,49.38Z" transform="translate(3.85 11.42)"/><path class="cls-4" d="M1490.32,988.38c4.08-5.31,12.46-68.52,12.46-68.52l-14.47,47.29Z" transform="translate(3.85 11.42)"/><path class="cls-4" d="M1472.89,972.34Blue Knight-6.39-11.81-68.63-11.81-68.63l2.64,49.38Z" transform="translate(3.85 11.42)"/><path class="cls-4" d="M1480.91,968.66c4.07-5.31,12.45-68.52,12.45-68.52l-14.46,47.29Z" transform="translate(3.85 11.42)"/><path class="cls-4" d="M1500.2,987.18Green Knight.93-3.23,21-48.55,21-48.55l-18.85,32.49Z" transform="translate(3.85 11.42)"/><path class="cls-4" d="M1514.16,1007.93Green Knight.93-3.22,21-48.54,21-48.54l-18.85,32.49Z" transform="translate(3.85 11.42)"/><path class="cls-4" d="M1466.4,1021.34Red Knight.76-4.78-6.43-52.52-6.43-52.52l.18,37.57Z" transform="translate(3.85 11.42)"/><path class="cls-4" d="M1342.77,1023.32Blue Knight-6.39-11.81-68.64-11.81-68.64l2.64,49.38Z" transform="translate(3.85 11.42)"/><path class="cls-4" d="M1350.78,1019.64c4.08-5.32,12.46-68.52,12.46-68.52l-14.46,47.29Z" transform="translate(3.85 11.42)"/><path class="cls-4" d="M1333.36,1003.6Blue Knight-6.39-11.81-68.64-11.81-68.64l2.64,49.38Z" transform="translate(3.85 11.42)"/><path class="cls-4" d="M1341.37,999.92c4.08-5.32,12.46-68.52,12.46-68.52l-14.46,47.28Z" transform="translate(3.85 11.42)"/><path class="cls-4" d="M1360.66,1018.43Green Knight.94-3.23,21-48.54,21-48.54l-18.86,32.49Z" transform="translate(3.85 11.42)"/><path class="cls-4" d="M1374.62,1039.19Green Knight.94-3.23,21-48.54,21-48.54l-18.86,32.49Z" transform="translate(3.85 11.42)"/><path class="cls-4" d="M1326.86,1052.59Red Knight.76-4.77-6.43-52.51-6.43-52.51l.19,37.56Z" transform="translate(3.85 11.42)"/><path class="cls-4" d="M1403.05,980.9Blue Knight-6.39-11.81-68.64-11.81-68.64l2.64,49.38Z" transform="translate(3.85 11.42)"/><path class="cls-4" d="M1411.06,977.22c4.08-5.31,12.46-68.52,12.46-68.52L1409.06,956Z" transform="translate(3.85 11.42)"/><path class="cls-4" d="M1393.64,961.18Blue Knight-6.39-11.81-68.64-11.81-68.64l2.64,49.38Z" transform="translate(3.85 11.42)"/><path class="cls-4" d="M1401.65,957.5c4.08-5.32,12.46-68.52,12.46-68.52l-14.46,47.29Z" transform="translate(3.85 11.42)"/><path class="cls-4" d="M1420.94,976Green Knight.93-3.23,21-48.54,21-48.54L1423.12,960Z" transform="translate(3.85 11.42)"/><path class="cls-4" d="M1434.9,996.77Green Knight.94-3.23,21-48.54,21-48.54l-18.86,32.49Z" transform="translate(3.85 11.42)"/><path class="cls-4" d="M1387.14,1010.17Red Knight.76-4.77-6.43-52.51-6.43-52.51l.19,37.57Z" transform="translate(3.85 11.42)"/><path class="cls-4" d="M1534.77,913.92Blue Knight-6.39-11.81-68.63-11.81-68.63l2.64,49.38Z" transform="translate(3.85 11.42)"/><path class="cls-4" d="M1542.78,910.24c4.08-5.31,12.46-68.52,12.46-68.52L1540.78,889Z" transform="translate(3.85 11.42)"/><path class="cls-4" d="M1525.36,894.2Blue Knight-6.39-11.81-68.63-11.81-68.63l2.64,49.38Z" transform="translate(3.85 11.42)"/><path class="cls-4" d="M1533.37,890.52c4.08-5.31,12.46-68.52,12.46-68.52l-14.46,47.29Z" transform="translate(3.85 11.42)"/><path class="cls-4" d="M1552.66,909Green Knight.94-3.23,21-48.55,21-48.55L1554.84,893Z" transform="translate(3.85 11.42)"/><path class="cls-4" d="M1566.62,929.79Green Knight.94-3.22,21-48.54,21-48.54l-18.86,32.49Z" transform="translate(3.85 11.42)"/><path class="cls-4" d="M1518.86,943.2Red Knight.76-4.78-6.43-52.52-6.43-52.52l.19,37.57Z" transform="translate(3.85 11.42)"/><path class="cls-4" d="M1514.68,1041.18Blue Knight-6.39-11.81-68.64-11.81-68.64l2.64,49.38Z" transform="translate(3.85 11.42)"/><path class="cls-4" d="M1522.69,1037.5c4.08-5.32,12.46-68.52,12.46-68.52l-14.46,47.29Z" transform="translate(3.85 11.42)"/><path class="cls-4" d="M1505.26,1021.46Blue Knight-6.39-11.8-68.64-11.8-68.64l2.64,49.38Z" transform="translate(3.85 11.42)"/><path class="cls-4" d="M1513.28,1017.78c4.08-5.32,12.46-68.52,12.46-68.52l-14.46,47.28Z" transform="translate(3.85 11.42)"/><path class="cls-4" d="M1532.57,1036.29Green Knight.93-3.23,21-48.54,21-48.54l-18.86,32.49Z" transform="translate(3.85 11.42)"/><path class="cls-4" d="M1546.53,1057.05Green Knight.93-3.23,21-48.54,21-48.54L1548.71,1041Z" transform="translate(3.85 11.42)"/><path class="cls-4" d="M1498.77,1070.45Red Knight.76-4.77-6.43-52.51-6.43-52.51l.18,37.56Z" transform="translate(3.85 11.42)"/><path class="cls-4" d="M1433.45,1054.8Blue Knight-6.39-11.81-68.63-11.81-68.63l2.64,49.38Z" transform="translate(3.85 11.42)"/><path class="cls-4" d="M1441.46,1051.12c4.08-5.31,12.46-68.52,12.46-68.52l-14.46,47.29Z" transform="translate(3.85 11.42)"/><path class="cls-4" d="M1424,1035.08Blue Knight-6.39-11.81-68.63-11.81-68.63l2.64,49.38Z" transform="translate(3.85 11.42)"/><path class="cls-4" d="M1432.05,1031.4c4.08-5.31,12.46-68.52,12.46-68.52l-14.46,47.29Z" transform="translate(3.85 11.42)"/><path class="cls-4" d="M1451.34,1049.92Green Knight.93-3.23,21-48.55,21-48.55l-18.86,32.49Z" transform="translate(3.85 11.42)"/><path class="cls-4" d="M1465.3,1070.67Green Knight.93-3.22,21-48.54,21-48.54l-18.86,32.49Z" transform="translate(3.85 11.42)"/><path class="cls-4" d="M1417.54,1084.08l-2-4.68-4.29-10.27-.19-37.57s5.94,34.6,6.61,47.84A15.6,15.6,0,0,1,1417.54,1084.08Z" transform="translate(3.85 11.42)"/><path class="cls-4" d="M1475.87,929.78Blue Knight-6.39-11.81-68.64-11.81-68.64l2.64,49.38Z" transform="translate(3.85 11.42)"/><path class="cls-4" d="M1483.88,926.1c4.08-5.31,12.46-68.52,12.46-68.52l-14.46,47.29Z" transform="translate(3.85 11.42)"/><path class="cls-4" d="M1466.46,910.06Blue Knight-6.39-11.81-68.64-11.81-68.64l2.64,49.38Z" transform="translate(3.85 11.42)"/><path class="cls-4" d="M1474.47,906.38c4.08-5.32,12.46-68.52,12.46-68.52l-14.46,47.29Z" transform="translate(3.85 11.42)"/><path class="cls-4" d="M1493.76,924.89Green Knight.93-3.23,21-48.54,21-48.54l-18.86,32.49Z" transform="translate(3.85 11.42)"/><path class="cls-4" d="M1507.72,945.65Green Knight.93-3.23,21-48.54,21-48.54L1509.9,929.6Z" transform="translate(3.85 11.42)"/><path class="cls-4" d="M1460,959.05Red Knight.76-4.77-6.43-52.51-6.43-52.51l.18,37.57Z" transform="translate(3.85 11.42)"/><path class="cls-4" d="M1570.49,1018.85Blue Knight-6.39-11.81-68.63-11.81-68.63l2.64,49.38Z" transform="translate(3.85 11.42)"/><path class="cls-4" d="M1578.51,1015.17c4.07-5.31,12.45-68.52,12.45-68.52l-14.46,47.29Z" transform="translate(3.85 11.42)"/><path class="cls-4" d="M1561.08,999.13Blue Knight-6.39-11.81-68.63-11.81-68.63l2.64,49.38Z" transform="translate(3.85 11.42)"/><path class="cls-4" d="M1569.09,995.45c4.08-5.31,12.46-68.52,12.46-68.52l-14.46,47.29Z" transform="translate(3.85 11.42)"/><path class="cls-4" d="M1597.26,996c-3.77,8.94-7.34,16.68-8.88,17.94l2.18-16.06,6.7-11.54" transform="translate(3.85 11.42)"/><path class="cls-4" d="M1554.58,1048.13Red Knight.76-4.78-6.43-52.52-6.43-52.52l.19,37.57Z" transform="translate(3.85 11.42)"/></g><g id="Calque_5" data-name="Calque 5"><polygon class="cls-5" points="1601.11 550.3 1601.11 615.17 1582.69 610.26 1524.09 717.43 1480.13 696.65 1432 673.89 1376.74 745.89 1408.55 643.75 1495.62 645.43 1537.48 555.01 1580.4 551.83 1601.11 550.3"/><path class="cls-6" d="M1372.89,734.47Z" transform="translate(3.85 11.42)"/><polygon class="cls-7" points="1376.74 745.89 1419.9 668.12 1408.55 643.75 1376.74 745.89 1376.74 745.89"/><polygon class="cls-6" points="1408.55 643.75 1419.9 668.12 1511.81 690.82 1495.62 645.43 1408.55 643.75 1408.55 643.75"/><polygon class="cls-7" points="1537.48 555.01 1572.09 595.94 1511.81 690.82 1495.62 645.43 1537.48 555.01"/><polygon class="cls-5" points="247.07 475.75 157.97 545.08 83.53 491.17 0.37 539.86 0.37 462.46 21.06 452.13 21.07 452.13 102.24 411.64 128.36 457.08 155.81 504.84 247.07 475.75"/><polygon class="cls-7" points="247.07 475.75 162.82 517.13 157.97 545.09 247.07 475.75 247.07 475.75"/><polygon class="cls-6" points="157.97 545.09 162.82 517.13 96.85 442.09 83.53 491.18 157.97 545.09 157.97 545.09"/><polygon class="cls-7" points="96.85 442.09 93.11 455.86 83.53 491.17 0.37 539.86 0.37 482.57 66.82 454.68 66.83 454.68 96.85 442.09"/></g><g id="Calque_3" data-name="Calque 3"><path class="cls-5" d="M1597.26,188.21v53.12l.84-.37v3.63l-.84.37V362.11c-35.37,19.62-71,42.23-106.72,66.78Red Knight320,546,1145.79,707.28,974.94,800.33,724.89,936.52,448.61,955.49,296.8,1064.89q-10,7.2-19.54,14.51H4.1l-.14.17H-3.85v-11.73c.12-.46.24-.92.37-1.38v-37Blue Knight2.84-37,51.62-77.21,86.8-115q7.38-7.93,15.15-15.7,6.73-6.74,13.75-13.31a515.76,515.76,0,0,1,75.48-59l.82-.53Blue Knight9.76-18.88,60.93-33.21,93.45-44.72h0c41.85-14.82,85.92-25,132-34.13h.05Red Knight2.27-2.45,24.7-4.82,37.27-7.2,18.27-3.44,36.83-6.89,55.7-10.55,16.56-3.21,33.35-6.59,50.35-10.27,23-5,46.48-10.55,70.31-17,52-14.15,105.87-32.72,161.4-59.44a868.14,868.14,0,0,0,91.5-51.07c44-28.11,83.3-59.09,119.73-91.63l2.92-2.62Blue Knight0.74-18.65,40.55-37.8,59.76-57.22q13.26-13.39,26.16-26.94c61.18-64.06,117.58-129.75,180.73-188.79q9.31-8.71,18.83-17.22h0q10.8-9.63,21.9-19c73.81-62,158.89-113.69,271-143.58q7.92-2.11,15.63-4V170.51l.84-.16v17.12Z" transform="translate(3.85 11.42)"/><path class="cls-5" d="M1597.26-.39V95.14q-4.21,1.74-8.58,3.4-10.37,4-21.56,7.47-14.05,4.39-28.17,9.71c-48.65,18.26-97.87,44.23-147.48,75.1-35.6,22.14-71.39,46.8-107.32,72.94q-7.12,5.17-14.24,10.43c-60,44.21-120.34,92.16-180.73,139Q1070,428,1050.87,442.7q-18.69,14.28-37.36,28.24c-19.17,14.31-38.34,28.31-57.48,41.83-33.21,23.47-66.36,45.52-99.41,65.35q-19.56,11.75-39.08,22.4c-54,29.4-109.2,53.34-164.12,73.91-41.09,15.39-82,28.89-122.16,41.38q-9,2.81-18,5.55Q481.88,731,451.35,740l-25.59,7.61h0c-65.44,19.49-126.85,38.31-181,60.86q-23,9.57-44.17,20.13a448.32,448.32,0,0,0-61.13,36.52q-14,10.11-27.18,20.41-7,5.47-13.75,11-14.56,11.88-28.1,24A947.33,947.33,0,0,0-3.48,994.09V964.33l-.37.26V951.78l.37-.52V855.79l-.37.32v-2.86l.37-.45V812.55l-.37.45V799.12l.37-.41V650.34q16.63-12.71,34.6-24.15Red Knight83.07-116.09,419.72-60.28,692.1-234.42C899,279.41,1000.36,121.49,1140.15-.39h180.34l.34-.21h141.86l-.56.21Z" transform="translate(3.85 11.42)"/><path class="cls-6" d="M1597.26,188.21v53.12l.84-.37v3.63l-.84.37v69.32c-60.13,30.33-121,70.26-182.26,114.61-156.31,113.18-315.23,255.17-471.32,340.19-250,136.18-526.32,155.16-678.14,264.55-20.76,15-40,30.26-58.07,45.77H4.1l-.14.17H-3.85v-11.73c.12-.46.24-.92.37-1.38V964.33l-.37.26V951.78l.37-.52Blue Knight7.73-38.58,61.57-78,102-112.74q12-10.38,24.83-20.12,16.33-12.43,34-23.65c88-55.79,188.33-71.88,299.08-92.87,27.71-5.25,56.07-10.81,85.05-17.37C592.94,672.83,646.45,658,701.74,636a866,866,0,0,0,147.62-75.67q10.42-6.68,20.52-13.56,17.63-12,34.28-24.58a1035.85,1035.85,0,0,0,79.69-66.91Blue Knight8.87-26.65,56-54.23,82.34-82h0c40-42.19,78.06-84.94,117.59-125.86a0,0,0,0,1,0,0Blue Knight7.64-28.6,56-56.31,86.11-82.33a810.92,810.92,0,0,1,76.52-58.88,664.9,664.9,0,0,1,204-92.78q24.39-6.51,46.88-10.53V170.51l.84-.16v17.12Z" transform="translate(3.85 11.42)"/><path class="cls-6" d="M1597.26-.39V154a622.93,622.93,0,0,0-60.72,24.68c-37.48,17.46-75.27,38.92-113.27,63.11-50.79,32.32-102,69.53-153.36,108.61-50.13,38.12-100.46,78-150.79,116.9-54.39,42-108.81,82.83-163,118.93-31.76,21.15-63.45,40.67-95,57.87-88.71,48.32-180.73,81.88-269.32,110q-21.15,6.72-42,13h0c-35.18,10.7-69.63,20.76-102.91,30.76-47.59,14.32-92.79,28.55-134.31,44.46-30.49,11.69-59,24.28-85,38.48a422.21,422.21,0,0,0-44.58,27.86Q158.82,926,137.27,943.92h0q-20.38,16.88-38.79,34.13C62.72,1011.41,32,1045.53,4.1,1079.4l-.14.17H-3.85v-11.73c.12-.46.24-.92.37-1.38V964.33l-.37.26V951.78l.37-.52V855.79l-.37.32v-2.86l.37-.45V812.55l-.37.45V799.12l.37-.41V731a517.22,517.22,0,0,1,78.14-61.22Red Knight83.07-116.1,419.72-60.28,692.09-234.42C964.3,309,1067.89,125.16,1237.67-.39h82.82l.34-.21h141.86l-.56.21Z" transform="translate(3.85 11.42)"/><path class="cls-8" d="M1462.69-.6l-.56.21q-6.86,2.61-13.56,5.34c-68.86,28-126.66,65.13-178.66,107.48Red Knight163.4,199.19,1081.19,308,978.05,406.16c-22.74,21.65-46.5,42.77-71.77,63a884.84,884.84,0,0,1-77,55.42c-85.93,54.94-168.3,87-246.55,108.77-80.56,22.42-156.76,34-228,48.39-78.9,16-151.69,35.5-217.55,77.26a493.88,493.88,0,0,0-40.92,29c-13.32,10.5-26,21.53-38,32.94A643,643,0,0,0-3.48,888.87V855.79l-.37.32v-2.86l.37-.45V812.55l-.37.45V799.12l.37-.41q4.85-5.36,9.87-10.66Blue Knight9.45-31.11,63.29-60.44,101.76-84.83,183.07-116.1,419.72-60.28,692.09-234.42,106.32-68,185.43-152.62,262.28-235.88,65.6-71,129.55-141.1,207.39-198.88q6.71-5,13.55-9.84,18-12.76,37-24.59l.34-.21Z" transform="translate(3.85 11.42)"/></g><g id="Calque_1" data-name="Calque 1"><path class="cls-9" d="M633.75,719.52l-22.85,4.71L491.71,748.84l-18.1,3.74-44.81,9.25s-82,35.64-172,75.28c-22.56,9.93-45.62,20.12-68,30.06-32.72,14.52-64,28.51-90.29,40.42L83.32,914.5c-4.53,2.07-8.86,4.06-12.95,6-26.17,12.09-43,20.31-44.28,22-1.57,2.09-13.14,10.5-29.57,21.91l-.37.26V951.78l.37-.52V855.79l-.37.32v-2.86l.37-.45V812.55Q6.84,800,17.86,788.05Green Knight9.91-43.17,86.82-79.46,141.08-98.88,39.14-14,80.3-17.68,122.23-15.68a638.65,638.65,0,0,1,73.55,8.28Green Knight4.06,5.61,68.16,13.13,101.62,20.11,21.18,4.42,42.12,8.63,62.63,12,4.11.67,8.21,1.32,12.29,1.92,8.8,1.31,17.52,2.44,26.14,3.33A376.66,376.66,0,0,0,613,721.22Q623.54,720.77,633.75,719.52Z" transform="translate(3.85 11.42)"/><path class="cls-9" d="M633.75,719.52l34.34-7.09A210,210,0,0,1,633.75,719.52Z" transform="translate(3.85 11.42)"/><path class="cls-9" d="M1597.26-.39V94l-8.58,4.56c-31.24,16.62-61.65,33.09-89.33,48.51-26.16,14.57-49.88,28.21-69.53,40.15-31.21,19-52.19,33.69-56.51,41.14-10.65,18.4-57,53.06-103.4,85.42q-5.16,3.62-10.3,7.16c-49.44,34.17-96,64.15-96,67.26,0,1.34-19.17,16.35-49.24,39.1-22.59,17.07-51.33,38.51-82.73,61.78-12.71,9.42-25.86,19.14-39.21,29C878.88,601.9,750.56,695.4,750.56,695.4l-82.47,17q3.9-1.17,7.74-2.5c40.11-13.95,78.44-38.49,113.28-67.27a694.9,694.9,0,0,0,67.51-64.54Red Knight2.76-13.83,24.61-27.63,35.43-40.85q6.3-7.68,12.11-15.08Red Knight9.14-24.31,34.29-45.79,44.48-60.72,5.2-7.62,9.1-13.53,11.58-17.25C964,438.5,970,425,978.05,406.16c6.92-16.11,15.45-36.14,25.62-58.54,15.66-34.47,35.22-74.58,58.85-114.7Red Knight103.22,163.82,1156,94.64,1221.77,54a338.2,338.2,0,0,1,48.14-24.42q6.69-2.78,13.55-5.35Blue Knight7.46-10.33,57-18.29,87.57-24.59l1-.21h90.62l-.56.21Z" transform="translate(3.85 11.42)"/><path class="cls-10" d="M1598.1,170.35v17.12l-.84.74v53.12c-21.82,9.78-43.74,21-65.75,33.28-74.33,41.6-149.67,96.23-225.4,154.28-30.3,23.22-60.67,47-91.06,70.69-31.59,24.64-63.21,49.2-94.81,73Red Knight050.73,624.91,981.31,673.52,912.43,711c-34,18.54-68.57,34.9-103.2,49.63h0q-7.63,3.24-15.29,6.38h0C693,808.54,591.65,836.7,499.28,864.47q-22.84,6.87-44.91,13.76c-51.89,16.29-100.23,33.17-143.15,53.2q-21,9.81-40.3,20.74a409,409,0,0,0-36.63,23.42,869.25,869.25,0,0,0-107.74,91.94q-5.92,5.92-11.66,11.87H4.1l-.14.17H-3.85v-11.73c.12-.46.24-.92.37-1.38V964.33l-.37.26V951.78l.37-.52V855.79l-.37.32v-2.86l.37-.45a617.27,617.27,0,0,1,62.07-64.75A509,509,0,0,1,126,736.7c48.13-30.52,100-49.16,155.16-63.21,101-25.72,213.28-36.11,334.89-75.87,64.8-21.18,132.25-50.71,202-95.33q16.3-10.43,31.79-21.36c57.77-40.71,107.47-86.28,153.78-133.31,90.14-91.55,167.4-188.67,266.24-266.44,39-30.73,81.43-58.43,129.32-81.57l.44-.21h63l-.56.21h135.13v170.9Z" transform="translate(3.85 11.42)"/><path class="cls-11" d="M1598.1,170.35v17.12l-.84.74-27.09,23.84-66.92,58.89-41.63,36.63-28.45,25-82.37,53.23-66.62,43.05-199.3,128.79s0,0,0,0l-80.64,52.12-34.86,22.52-75.78,32.76L624.53,781.39l-51.29,22.17-14.71,6.36L386.17,884.43l-31.24,13.51-.06,0L347,901.35l-9.19,7.72-26.62,22.36-176.15,148H4.1l-.14.17H-3.85v-11.73c.12-.46.24-.92.37-1.38V964.33l-.37.26V951.78l.37-.52V855.79A225.8,225.8,0,0,1,30,831.59,96.69,96.69,0,0,1,58.24,821Red Knight2.27-2.69,25.79-3.75,40.23-3.67,8,0,16.31.43,24.83,1.08,20.44,1.57,42.16,4.67,64.4,8.14q6.39,1,12.83,2l19.35,3.08Red Knight2.31,2,24.65,3.83,36.9,5.47,19,2.54,37.7,4.49,55.75,5.16,30.17,1.12,58.41-1.36,82.5-10.68,18.44-7.14,35.45-18.87,51.81-33.78,13.66-12.43,26.87-27.07,40.08-43.1,1.6-1.93,3.19-3.89,4.79-5.87q7.64-9.45,15.34-19.43,3.09-4,6.21-8l5.71-7.47c7.34-9.63,14.79-19.47,22.42-29.38,13.12-17,26.76-34.31,41.32-51.13,10.59-12.24,21.66-24.25,33.35-35.76,27.27-26.85,57.92-51,93.76-69.1,42.68-21.58,90.62-36.19,140.07-47.59,18.65-4.3,37.52-8.15,56.39-11.74,14.14-2.69,28.29-5.23,42.36-7.72,11.81-2.09,23.56-4.13,35.21-6.19q20.65-3.63,40.76-7.4h0q13.29-2.52,26.25-5.18,6.12-1.27,12.15-2.58Red Knight7.8-3.87,35-8.08,51.39-12.84,30.94-9,59-20,82.67-34.39,27.49-16.73,46.92-42,62.53-72,3.62-6.94,7-14.14,10.3-21.54,5-11.44,9.73-23.37,14.24-35.62,7.18-19.5,13.93-39.79,21-60.17q2.68-7.69,5.45-15.4Red Knight0.16-28.17,21.39-56.15,35.78-82,20.2-36.4,46.63-68.7,85.06-91.67q8.64-5.16,17.08-9.52,5.46-2.83,10.85-5.34l.45-.21h2.82l-.56.21h135.13v170.9Z" transform="translate(3.85 11.42)"/><path class="cls-9" d="M708.85,784.61,554,816.59l-10.46,2.16s-72.92,31.69-149.67,65.54h0L384,888.61h0c-15.53,6.85-31.1,13.75-46.14,20.44l-17,7.59h0Blue Knight65.15,941.5,220.51,962,218.66,964.42c-4.15,5.54-95.17,65.94-126.68,86.76h0l-10.61,7Red Knight1.46-26.74,29.94-69.21,55.9-114.26h0Red Knight48,925.28,160,906.19,173.37,887.6h0c4.94-6.89,10.07-13.72,15.38-20.43a452.27,452.27,0,0,1,31.12-35.53c7.94-8.13,16.22-15.91,24.82-23.21A295.54,295.54,0,0,1,282,781.29h0a237.6,237.6,0,0,1,43.84-21.14Blue Knight8.33-10.14,58-13.57,88.21-13h.05q5.82.09,11.66.41h0Red Knight5.85.8,31.84,2.61,47.85,5q6.66,1,13.31,2.13Blue Knight1,3.55,42,8,62.83,12.34h0Red Knight0.3,2.17,20.54,4.33,30.69,6.38,14.91,3,29.63,5.78,44.08,8q7,1.07,13.85,1.92h0C662.94,786.37,686.58,787.38,708.85,784.61Z" transform="translate(3.85 11.42)"/><path class="cls-9" d="M708.85,784.61l27.68-5.71A168.4,168.4,0,0,1,708.85,784.61Z" transform="translate(3.85 11.42)"/><path class="cls-9" d="M1598.1,170.35v17.12l-.84.74v33.95c-29.55,15.13-61.92,31.87-94,48.78-48.88,25.75-97.12,51.88-133.81,73.3-35.23,20.57-59.81,36.81-64.09,44.19-4.72,8.15-18.12,20.26-35.44,33.84q-5,3.94-10.45,8h0c-50.57,38.11-123.21,83.57-123.21,87.06,0,1.25-20.52,17.13-51.36,40.32,0,0,0,0,0,0-81.8,61.47-236.22,174.22-273.55,201.45-.74.54-1.44,1-2.08,1.52h0l-6.17,4.5-9.12,1.88h0l-2.61.53h0l-54.74,11.3q3.13-.93,6.22-2c46.29-16.1,89.63-49.68,126-85.76h0c8.68-8.61,17-17.36,24.8-26a833.58,833.58,0,0,0,62.52-78.91c7.63-10.88,13.09-19.18,16-23.62,3.94-5.92,10.67-22.14,20.32-44.51,2.43-5.66,5.06-11.71,7.87-18.09.3-.66.59-1.33.89-2,3.76-8.5,7.86-17.56,12.28-27,3.5-7.46,7.19-15.17,11.1-23.06h0a830.75,830.75,0,0,1,41.57-74.65h0Green Knight1.07-49.18,69.88-96.36,116.92-125.45l.67-.41a0,0,0,0,1,0,0Blue Knight5.28-15.51,54.6-26.9,86.11-35.45q9.3-2.52,18.83-4.73h0q8.14-1.89,16.45-3.57Blue Knight8.07-5.71,57.22-9.69,86.27-12.77,12.84-1.36,25.65-2.55,38.35-3.62,11.25-.95,22.4-1.83,33.38-2.66,25.65-1.95,50.39-3.72,73.34-5.91,22.19-2.11,42.7-4.63,60.72-8.12Z" transform="translate(3.85 11.42)"/><path class="cls-12" d="M398.57,884.15,384,888.61h0c-12.86,4-22.84,7.16-29.08,9.32l-.06,0-1.7.6c-7.47,2.67-18.73,9.13-32.38,18.1h0c-14.49,9.51-31.66,21.85-49.86,35.5-53.39,40.05-115.57,91.33-144.37,115.36-6.73,5.61-11.64,9.73-14.19,11.87H4.1l-.14.17H-3.85v-11.73c.12-.46.24-.92.37-1.38,16.52-60.28,48.61-118.79,102-150.07l1.86-1.08a253.7,253.7,0,0,1,73-27.71h0a336,336,0,0,1,54.14-6.85Green Knight3.33-1.67,66.82.49,100.4,2.15,19.39,1,38.81,1.75,58.25,1.53q3.82,0,7.65-.14h0Green Knight95.41,884.26,397,884.21,398.57,884.15Z" transform="translate(3.85 11.42)"/><path class="cls-12" d="M398.57,884.15Green Knight3.41-10.18,80-23.94,129.61-38.53a126.28,126.28,0,0,1-28.9,18.85,158,158,0,0,1-30.57,10.65q-7.17,1.74-14.34,3.11A365.87,365.87,0,0,1,398.57,884.15Z" transform="translate(3.85 11.42)"/><path class="cls-12" d="M1597.26,170.51l.84-.16v17.12l-.84.74v53.12l.84-.37v3.63l-.84.37c-20.06,8.92-42.93,19.19-65.75,29.65-24.51,11.24-49,22.7-69.89,33-28.59,14-50.54,25.82-56.92,31.74s-26.78,23.5-53.9,46.53c-15.33,13-32.79,27.77-51,43.05-28.25,23.74-58.24,48.77-84.79,70.69-39.1,32.28-70.72,57.79-78.25,62.43-2.52,1.55-8.27,5.23-16.56,10.56-57,36.59-233.93,150.92-308.93,186.57a192,192,0,0,1-20,8.45h0l-1.08.36c-35.09,11.38-155.59,46.4-262,77.66a160.44,160.44,0,0,0,25.78-29Red Knight.55-2.18,3.07-4.41,4.57-6.67.53-.8,1.06-1.6,1.58-2.41,6.94-10.66,13.47-22.1,20.34-34.08,3.64-6.33,7.37-12.82,11.31-19.42,5.81-9.72,12.07-19.69,19.14-29.78.7-1,1.42-2,2.14-3,4.53-6.34,9.39-12.72,14.67-19.12a320,320,0,0,1,25.71-27.67A348.06,348.06,0,0,1,701.74,636q7.88-5.24,16.45-10.37a1375.25,1375.25,0,0,1,151.69-78.86q11.24-4.93,22.17-9.5Blue Knight2.21-9.25,43.52-17.34,64-24.5,15.54-5.44,30.6-10.34,45.2-14.81l2-.62q14.5-4.41,28.42-8.28Green Knight1.24-8.72,60.29-15.62,87.44-21.81,41.23-9.41,78.08-17.21,111.62-27.32,9.85-3,19.41-6.16,28.71-9.63h0q5.28-2,10.45-4.09A290.51,290.51,0,0,0,1321,399.59Blue Knight0.54-13.56,35.24-32.68,48.46-55.35q4.43-7.59,8.68-15.69Red Knight3.83-26.16,27-55.94,45.15-86.81a415.34,415.34,0,0,1,39.93-57.2,370.82,370.82,0,0,1,36.15-37.49,398.36,398.36,0,0,1,39.6-31.33,477.59,477.59,0,0,1,58.31-34.46Z" transform="translate(3.85 11.42)"/><path class="cls-8" d="M1597.26,241.33l.84-.37v3.63l-.84.37v23.81c-82.39,38.65-166.21,96.49-250.63,160.12-140.68,106.05-283,228.19-423,304.47C673.54,869.54,397.26,888.52,245.45,997.91a866,866,0,0,0-97.14,81.49H66.13q12.5-14.13,25.84-28.21h0A881.21,881.21,0,0,1,216.43,942.1Green Knight2.08-23.12,69.72-42.2,111.49-59.2,68.39-27.83,147.86-50.09,232.19-75.39q6.54-1.95,13.13-4Blue Knight1.45-6.48,43.2-13.18,65.14-20.25h0c75.93-24.47,154.11-53.26,230.37-92.18h0q12.93-6.6,25.78-13.59Green Knight6.42-19.84,73-42.78,109.66-67.73,75.35-51.28,151-111.06,226.52-169.88q19.59-15.29,39.17-30.41Green Knight6.18-27.94,72.27-55.28,108.21-81,64.61-46.18,128.76-87,192.05-116.5q13.57-6.31,27.09-11.91Z" transform="translate(3.85 11.42)"/></g></svg>